# xmcd CD database file
#
# Track frame offsets:
#	150
#	36075
#	82275
#	113400
#	149100
#	200232
#	236775
#
# Disc length: 3629 seconds
#
# Revision: 0
# Processed by: cddbd v1.4PL0 Copyright (c) Steve Scherf et al.
# Submitted via: CDex 1.50Beta5
#
DISCID=6a0e2b07
DTITLE=Nick Brignola - Like Old Times
DYEAR=1994
DGENRE=Jazz
TTITLE0=Like Old Times
TTITLE1=When Lights Are Low
TTITLE2=Lambari
TTITLE3=More Than You Know
TTITLE4=The Night Has A Thousand Eyes
TTITLE5=Y's Way
TTITLE6=You Go To My Head
EXTD=YEAR: 1994
EXTT0=
EXTT1=
EXTT2=
EXTT3=
EXTT4=
EXTT5=
EXTT6=
PLAYORDER=
